<svg id="Capa_1" enable-background="new 0 0 512 512" height="512" viewBox="0 0 512 512" width="512" xmlns="http://www.w3.org/2000/svg"><g><g><g><g><g><g><g><circle cx="256" cy="256" fill="#1dd882" r="256"/></g></g></g></g></g></g><path d="m512 256c0-14.327-1.177-28.379-3.439-42.064l-98.134-98.134-356.016 224.429 169.816 169.816c10.41 1.289 21.014 1.953 31.773 1.953 141.385 0 256-114.615 256-256z" fill="#06b26b"/><g><path d="m282.694 118.693h115.459v56.166h-115.459z" fill="#636978" transform="matrix(.707 -.707 .707 .707 -4.059 283.755)"/></g><g><path d="m418.287 123.661-33.365 18.325-39.717-39.715 18.315-33.373z" fill="#333940"/></g><g><path d="m115.51 214.057h43.788v99.563h-43.788z" fill="#9196aa"/></g><g><path d="m115.51 262.856h43.788v50.763h-43.788z" fill="#7e8596"/></g><g><path d="m125.354 313.619-70.943 26.612v-152.786l70.943 26.612z" fill="#636978"/></g><g><path d="m54.411 262.856v77.375l70.943-26.612v-50.763z" fill="#555a66"/></g><g><path d="m413.307 369.064h-242.577c-11.75 0-21.276-9.525-21.276-21.276v-167.901c0-11.75 9.525-21.276 21.276-21.276h242.578c11.75 0 21.276 9.525 21.276 21.276v167.901c-.001 11.751-9.527 21.276-21.277 21.276z" fill="#555a66"/></g><g><path d="m149.454 262.856v84.933c0 11.75 9.525 21.275 21.275 21.275h242.578c11.75 0 21.276-9.525 21.276-21.275v-84.933z" fill="#414952"/></g><g><path d="m184.586 192.137h214.865v105.905h-214.865z" fill="#7e8596"/></g><g><path d="m184.586 262.856h214.865v35.186h-214.865z" fill="#707789"/></g><g><path d="m373.569 308.457h25.882v25.882h-25.882z" fill="#ffce00"/></g><g><path d="m328.635 308.457h25.882v25.882h-25.882z" fill="#fa0"/></g></g></svg>