<svg height="512" viewBox="0 0 512 512" width="512" xmlns="http://www.w3.org/2000/svg"><g id="Face_Blowing_a_Kiss" data-name="Face Blowing a Kiss"><g id="Flat"><path d="m240 512c-32.216 0-63.861-8.131-94.057-24.166-28.154-14.951-53.763-36.026-76.117-62.64-44.376-52.831-69.826-120.331-69.826-185.194a240 240 0 0 1 409.706-169.706 238.436 238.436 0 0 1 70.294 169.706c0 64.863-25.45 132.363-69.825 185.194-22.355 26.614-47.964 47.689-76.118 62.64-30.196 16.035-61.841 24.166-94.057 24.166z" fill="#ffcc80"/><path d="m409.706 70.294a243.1 243.1 0 0 0 -29.488-25.12 255.2 255.2 0 0 1 19.782 98.826c0 141.385-114.615 256-256 256a255.02 255.02 0 0 1 -107.631-23.677 303.789 303.789 0 0 0 33.457 48.871c22.354 26.614 47.963 47.689 76.117 62.64 30.196 16.035 61.841 24.166 94.057 24.166s63.861-8.131 94.057-24.166c28.154-14.951 53.763-36.026 76.118-62.64 44.375-52.831 69.825-120.331 69.825-185.194a238.436 238.436 0 0 0 -70.294-169.706z" fill="#ffb74d"/><path d="m424 216a7.974 7.974 0 0 1 -5.657-2.343c-26.215-26.214-80.3-8.661-86.383-6.574a9 9 0 0 1 -11.9-9.034c1.617-28.825 37.849-46.049 71.94-46.049a8 8 0 0 1 0 16c-22.7 0-43.164 8.455-51.736 20.033 22.43-5.5 64.052-11.031 89.393 14.31a8 8 0 0 1 -5.657 13.657z" fill="#424242"/><path d="m325.132 280a31.979 31.979 0 0 0 -21.132-56h-48a8 8 0 0 0 0 16h48a16 16 0 0 1 0 32h-24a8 8 0 0 0 0 16h24a16 16 0 0 1 0 32h-48a8 8 0 0 0 0 16h48a31.979 31.979 0 0 0 21.132-56z" fill="#d8667c"/><circle cx="184" cy="184" fill="#616161" r="24"/><circle cx="176" cy="176" fill="#fff" r="8"/><path d="m411.78 363.51-2-1.17a144.253 144.253 0 0 1 -18.15-13.25c-13.33-11.32-23.521-23.49-30.28-36.18-6.21-11.66-9.35-23.62-9.35-35.54a69.659 69.659 0 0 1 2.17-17.16 46.824 46.824 0 0 1 6.76-14.94 47.857 47.857 0 0 1 11.07-11.43 49.668 49.668 0 0 1 14.12-7.28 52.486 52.486 0 0 1 44.39 5.73 51.14 51.14 0 0 1 11.969 10.66 51.047 51.047 0 0 1 19.331-3.77 52.16 52.16 0 0 1 12.89 1.62h.029c.011.01.011.01.021.01l.05.01a52.686 52.686 0 0 1 15.6 6.82 51.218 51.218 0 0 1 12.141 11.02 49.238 49.238 0 0 1 7.87 14.08 47.533 47.533 0 0 1 2.819 16.03 46.8 46.8 0 0 1 -1.459 11.57 68.882 68.882 0 0 1 -8.89 20.48 72.706 72.706 0 0 1 -13.57 15.53c-8.81 7.64-19.88 13.88-32.9 18.55a155.9 155.9 0 0 1 -42.16 8.53.5.5 0 0 0 -.15.01z" fill="#ef5350"/><path d="m510.41 272.74a49.238 49.238 0 0 0 -7.87-14.08 51.218 51.218 0 0 0 -12.14-11.02c-.433-.281-.874-.548-1.315-.815a112.151 112.151 0 0 1 -124.632 71.475c6.63 10.75 15.745 21.085 27.177 30.793a144.253 144.253 0 0 0 18.15 13.25l2 1.17 2.32-.07a.5.5 0 0 1 .15-.01 155.9 155.9 0 0 0 42.16-8.53c13.02-4.67 24.09-10.91 32.9-18.55a72.706 72.706 0 0 0 13.57-15.53 68.882 68.882 0 0 0 8.89-20.48 46.8 46.8 0 0 0 1.459-11.57 47.533 47.533 0 0 0 -2.819-16.033z" fill="#e53935"/><circle cx="396" cy="260" fill="#ffb6b6" r="20"/><circle cx="428" cy="292" fill="#ffb6b6" r="12"/><path d="m190.966 161.034a24 24 0 0 1 -29.932 29.932 24 24 0 1 0 29.932-29.932z" fill="#424242"/><circle cx="112" cy="232" fill="#ffe4c0" r="24"/></g></g></svg>