<svg id="Capa_1" enable-background="new 0 0 512 512" height="512" viewBox="0 0 512 512" width="512" xmlns="http://www.w3.org/2000/svg" xmlns:xlink="http://www.w3.org/1999/xlink"><radialGradient id="SVGID_1_" cx="72.638" cy="63.551" gradientTransform="matrix(.707 -.707 .553 .553 -13.887 79.752)" gradientUnits="userSpaceOnUse" r="226.024"><stop offset=".0132" stop-color="#fffbe4"/><stop offset=".6064" stop-color="#f9efaf"/><stop offset=".7207" stop-color="#f9eeab"/><stop offset=".8394" stop-color="#f8ec9e"/><stop offset=".9597" stop-color="#f7e98a"/><stop offset="1" stop-color="#f6e781"/></radialGradient><radialGradient id="SVGID_2_" cx="-18.307" cy="255.964" gradientTransform="matrix(1 0 0 .66 0 86.958)" gradientUnits="userSpaceOnUse" r="405.566"><stop offset="0" stop-color="#f6e266"/><stop offset=".1349" stop-color="#f5dc60"/><stop offset=".3156" stop-color="#f0cb51"/><stop offset=".5216" stop-color="#e9af37"/><stop offset=".5854" stop-color="#e7a52e"/><stop offset="1" stop-color="#e7a52e"/></radialGradient><radialGradient id="SVGID_3_" cx="334.494" cy="267.854" gradientUnits="userSpaceOnUse" r="373.342"><stop offset="0" stop-color="#f6e266"/><stop offset=".377" stop-color="#f4dd45"/><stop offset=".4963" stop-color="#f2d340"/><stop offset=".6976" stop-color="#ecb934"/><stop offset=".8996" stop-color="#e49824"/></radialGradient><radialGradient id="SVGID_4_" cx="315.645" cy="467.53" gradientTransform="matrix(.931 0 0 .112 -38.569 409.074)" gradientUnits="userSpaceOnUse" r="234.348"><stop offset="0" stop-color="#ecb780"/><stop offset=".3347" stop-color="#faddb9"/><stop offset=".4962" stop-color="#ffecd0"/><stop offset=".888" stop-color="#fff"/></radialGradient><radialGradient id="SVGID_5_" cx="347.068" cy="373.198" gradientTransform="matrix(1 0 0 .57 0 160.603)" gradientUnits="userSpaceOnUse" r="234.831"><stop offset="0" stop-color="#d8aa8b"/><stop offset=".1426" stop-color="#cd9975"/><stop offset=".4378" stop-color="#b97a4d"/><stop offset=".5905" stop-color="#b16e3d"/><stop offset=".6258" stop-color="#ad6b3b"/><stop offset="1" stop-color="#804f2b"/></radialGradient><radialGradient id="SVGID_6_" cx="252.296" cy="219.655" gradientTransform="matrix(1 0 0 1.839 0 -184.277)" gradientUnits="userSpaceOnUse" r="60.658"><stop offset="0" stop-color="#c6865c"/><stop offset=".4963" stop-color="#c17d4f"/><stop offset=".7528" stop-color="#a86b3f"/><stop offset="1" stop-color="#8b572e"/></radialGradient><radialGradient id="SVGID_7_" cx="393.018" cy="222.064" gradientTransform="matrix(1 0 0 1.839 0 -186.299)" gradientUnits="userSpaceOnUse" r="60.658"><stop offset="0" stop-color="#c6865c"/><stop offset=".5808" stop-color="#c17d4f"/><stop offset=".7775" stop-color="#aa6d41"/><stop offset="1" stop-color="#8b572e"/></radialGradient><radialGradient id="SVGID_8_" cx="316.487" cy="346.781" gradientTransform="matrix(1 0 0 .409 0 205.055)" gradientUnits="userSpaceOnUse" r="217.242"><stop offset="0" stop-color="#ffece7"/><stop offset=".4882" stop-color="#fbe2da"/><stop offset=".5084" stop-color="#f9dfd7"/><stop offset="1" stop-color="#cba59d"/></radialGradient><radialGradient id="SVGID_9_" cx="339.923" cy="367.989" gradientTransform="matrix(1 0 0 .243 0 278.753)" gradientUnits="userSpaceOnUse" r="205.747"><stop offset="0" stop-color="#ffece7"/><stop offset=".5382" stop-color="#fbe2da"/><stop offset=".6451" stop-color="#f7dcd4"/><stop offset=".7832" stop-color="#eaccc4"/><stop offset=".9377" stop-color="#d5b2aa"/><stop offset="1" stop-color="#cba59d"/></radialGradient><g><path d="m293.01 23.082h-74.02c-120.945 0-218.99 98.045-218.99 218.99l89.659 24.005z" fill="url(#SVGID_1_)"/><path d="m74.02 242.072h-74.02c0 120.945 98.045 218.99 218.99 218.99h74.02z" fill="url(#SVGID_2_)"/><circle cx="293.01" cy="242.072" fill="url(#SVGID_3_)" r="218.99"/><path d="m258.279 488.918c125.572 0 227.368-12.472 227.368-27.856h-454.736c0 15.385 101.796 27.856 227.368 27.856z" fill="url(#SVGID_4_)"/><path d="m441.964 331.309c0 19.294-9.996 36.254-25.091 45.983-8.526 5.495-18.678 1.526-29.575 1.526h-188.576c-10.897 0-21.05 3.969-29.575-1.526-15.095-9.729-25.091-26.689-25.091-45.983 0-19.294 9.996-36.254 25.091-45.983 8.526-5.495 18.678-1.526 29.575-1.526h188.576c10.897 0 21.05-3.969 29.575 1.526 15.096 9.73 25.091 26.689 25.091 45.983z" fill="url(#SVGID_5_)"/><path d="m223.011 241.721c-12.576 0-22.771-10.195-22.771-22.771v-58.011c0-12.576 10.195-22.771 22.771-22.771 12.576 0 22.771 10.195 22.771 22.771v58.011c-.001 12.576-10.195 22.771-22.771 22.771z" fill="url(#SVGID_6_)"/><path d="m363.009 241.721c-12.576 0-22.771-10.195-22.771-22.771v-58.011c0-12.576 10.195-22.771 22.771-22.771 12.576 0 22.771 10.195 22.771 22.771v58.011c0 12.576-10.195 22.771-22.771 22.771z" fill="url(#SVGID_7_)"/><path d="m387.3 276.643h-188.58c-10.896 0-21.039 3.202-29.564 8.697v6.303c.006.139.011.279.017.418.95 22.007 19.313 39.249 41.34 39.249h164.994c22.027 0 40.39-17.241 41.34-39.248.006-.139.012-.279.017-.418v-6.303c-8.524-5.496-18.667-8.697-29.564-8.698z" fill="url(#SVGID_8_)"/><path d="m375.507 331.309h-164.994c-22.027 0-40.39 17.241-41.34 39.249-.006.139-.012.278-.017.418v6.303c8.525 5.495 18.668 8.696 29.564 8.697h188.58c10.896 0 21.039-3.202 29.564-8.697v-6.303c-.006-.139-.011-.279-.017-.418-.95-22.007-19.313-39.249-41.34-39.249z" fill="url(#SVGID_9_)"/></g></svg>