<svg height="512" viewBox="0 0 512 512" width="512" xmlns="http://www.w3.org/2000/svg"><g id="Grinning_Squinting_Face" data-name="Grinning Squinting Face"><g id="Flat"><path d="m256 512c-79.283 0-138.386-18.327-180.686-56.028-24.254-21.618-42.874-49.959-55.343-84.237-13.252-36.435-19.971-80.753-19.971-131.735 0-64.208 26.7-124.543 75.172-169.891 48.328-45.209 112.548-70.109 180.828-70.109s132.5 24.9 180.828 70.109c48.472 45.348 75.172 105.683 75.172 169.891 0 106.325-24.685 178.934-75.464 221.978-22.187 18.806-49.041 31.888-82.1 40-27.512 6.742-59.711 10.022-98.436 10.022z" fill="#ffcc80"/><path d="m452.253 85.882a286 286 0 0 1 3.747 46.118c0 156.849-127.151 284-284 284a282.657 282.657 0 0 1 -151.942-44.035c12.469 34.174 31.057 62.438 55.256 84.007 42.3 37.701 101.403 56.028 180.686 56.028 38.725 0 70.924-3.28 98.438-10.027 33.057-8.107 59.911-21.189 82.1-40 50.777-43.039 75.462-115.648 75.462-221.973 0-57.026-21.075-110.989-59.747-154.118z" fill="#ffb74d"/><path d="m256 464c-41.762 0-79.666-6.159-112.659-18.305-31.39-11.557-58.388-28.525-80.245-50.434-41.278-41.377-63.096-98.754-63.096-165.928v-18.133a8 8 0 0 1 6.065-7.762c1.101-.274 111.672-27.438 249.935-27.438 158.094 0 246.64 26.423 250.332 27.547a8 8 0 0 1 5.668 7.653v18.133c0 70.7-18.667 126.463-55.482 165.749-42.857 45.731-110.318 68.918-200.518 68.918z" fill="#e27484"/><path d="m92.414 419.587c62.846-116.455 185.973-195.587 327.586-195.587a372.727 372.727 0 0 1 91.949 11.456q.048-3.043.051-6.123v-18.133a8 8 0 0 0 -5.668-7.653c-3.692-1.124-92.238-27.547-250.332-27.547-138.263 0-248.834 27.164-249.935 27.438a8 8 0 0 0 -6.065 7.762v18.133c0 67.174 21.818 124.551 63.1 165.928a205.754 205.754 0 0 0 29.314 24.326z" fill="#d8667c"/><path d="m407.959 160a7.974 7.974 0 0 1 -5.656-2.343c-26.217-26.215-80.303-8.657-86.383-6.574a9 9 0 0 1 -11.906-9.034c1.622-28.825 37.854-46.049 71.945-46.049a8 8 0 0 1 0 16c-22.7 0-43.163 8.454-51.735 20.033 22.431-5.5 64.052-11.031 89.392 14.31a8 8 0 0 1 -5.657 13.657z" fill="#424242"/><path d="m104.041 160a8 8 0 0 1 -5.657-13.657c25.341-25.342 66.966-19.81 89.393-14.31-8.572-11.578-29.032-20.033-51.736-20.033a8 8 0 0 1 0-16c34.091 0 70.323 17.224 71.945 46.047a9 9 0 0 1 -11.909 9.035c-6.077-2.082-60.163-19.641-86.377 6.575a7.974 7.974 0 0 1 -5.659 2.343z" fill="#424242"/><path d="m256 464q63.646 0 112-15.33c0-10.046 0-17.3-.007-17.629a64.218 64.218 0 0 0 -62.1-63.013 63.35 63.35 0 0 0 -29.114 6.036 48.646 48.646 0 0 1 -41.56 0 64.008 64.008 0 0 0 -91.173 55.911l-.013 15.965c32.832 11.98 70.494 18.06 111.967 18.06z" fill="#ef5350"/><circle cx="56" cy="160" fill="#ffe4c0" r="24"/><circle cx="192" cy="408" fill="#ff8f8f" r="24"/><circle cx="456" cy="160" fill="#ffe4c0" r="24"/><path d="m374.739 288h-239.217a104.8 104.8 0 0 1 -65.715-23.306 106.43 106.43 0 0 1 -36.755-59.417l-1.811-8.142 8.125-1.555c40.154-7.686 121.692-20.58 216.634-20.58 99.389 0 171.9 10.539 215.232 19.379l7.909 1.614-1.667 7.965a106.443 106.443 0 0 1 -36.536 60.332 104.722 104.722 0 0 1 -66.199 23.71z" fill="#f5f5f5"/><path d="m162.228 288a299.679 299.679 0 0 1 188.735-108.634c-28.253-2.066-59.931-3.366-94.963-3.366-94.942 0-176.48 12.78-216.634 20.4l-8.125 1.541 1.811 8.07a105.031 105.031 0 0 0 102.47 81.989z" fill="#e5e5e5"/><g fill="#cfcfcf"><path d="m176 256v32h-16v-32a8 8 0 0 1 16 0z"/><path d="m224 232v56h-16v-56a8 8 0 0 1 16 0z"/><path d="m136 232v56h-.48a104.382 104.382 0 0 1 -15.52-1.16v-54.84a8 8 0 0 1 16 0z"/><path d="m264 256v32h-16v-32a8 8 0 0 1 16 0z"/><path d="m304 232v56h-16v-56a8 8 0 0 1 16 0z"/><path d="m392 232v54.56a104.221 104.221 0 0 1 -16 1.43v-55.99a8 8 0 0 1 16 0z"/><path d="m352 256v32h-16v-32a8 8 0 0 1 16 0z"/></g><path d="m367.993 431.041a64.228 64.228 0 0 0 -59.3-62.865 160.435 160.435 0 0 1 -99.344 93.056 383.01 383.01 0 0 0 46.651 2.768q63.646 0 112-15.33c0-10.046 0-17.302-.007-17.629z" fill="#e53935"/></g></g></svg>