<svg height="512" viewBox="0 0 512 512" width="512" xmlns="http://www.w3.org/2000/svg"><g id="Face_Screaming_in_Fear" data-name="Face Screaming in Fear"><g id="Flat"><path d="m256 512c-34.279 0-68.184-10.331-100.774-30.706-29.7-18.566-56.959-44.535-81.028-77.185-46.46-63.024-74.198-142.317-74.198-212.109 0-64.413 29.828-116.358 86.259-150.223 60.574-36.349 132.349-41.777 169.741-41.777 118.094 0 256 50.284 256 192 0 69.792-27.738 149.085-74.2 212.109-24.069 32.65-51.331 58.619-81.028 77.185-32.588 20.375-66.493 30.706-100.772 30.706z" fill="#4db6ac"/><path d="m461.694 68.554c-33.529 121.895-145.146 211.446-277.694 211.446a286.819 286.819 0 0 1 -183.07-65.665c5.137 63.978 31.7 133.386 73.27 189.774 24.069 32.65 51.331 58.619 81.028 77.185 32.588 20.375 66.493 30.706 100.772 30.706s68.184-10.331 100.774-30.706c29.7-18.566 56.959-44.535 81.028-77.185 46.46-63.024 74.198-142.317 74.198-212.109 0-53.4-19.585-93.809-50.306-123.446z" fill="#26a69a"/><path d="m144 320c-21.812 0-42.165-11.122-57.312-31.317-14.63-19.508-22.688-45.321-22.688-72.683s8.058-53.175 22.688-72.683c15.147-20.195 35.5-31.317 57.312-31.317s42.165 11.122 57.312 31.317c14.63 19.508 22.688 45.321 22.688 72.683s-8.058 53.175-22.688 72.683c-15.147 20.195-35.5 31.317-57.312 31.317z" fill="#fff"/><path d="m368 320c-21.812 0-42.165-11.122-57.312-31.317-14.63-19.508-22.688-45.321-22.688-72.683s8.058-53.175 22.688-72.683c15.147-20.195 35.5-31.317 57.312-31.317s42.165 11.122 57.312 31.317c14.63 19.508 22.688 45.321 22.688 72.683s-8.058 53.175-22.688 72.683c-15.147 20.195-35.5 31.317-57.312 31.317z" fill="#fff"/><path d="m256 448a40.016 40.016 0 0 1 -40-40v-80a40 40 0 0 1 80 0v80a40.016 40.016 0 0 1 -40 40z" fill="#ffb6b6"/><path d="m448 512-80-.05v-59.71a95.952 95.952 0 0 1 50.03-84.28l29.63-16.16a15.991 15.991 0 0 0 8.34-14.05v-49.75a47.959 47.959 0 0 1 48-48l8 .05v135.95a39.972 39.972 0 0 1 -16 32l-44.8 33.6a8.037 8.037 0 0 0 -3.2 6.4z" fill="#ffcc80"/><path d="m144 512-80-.05v-63.95a8.037 8.037 0 0 0 -3.2-6.4l-44.8-33.6a39.972 39.972 0 0 1 -16-32v-136h8a48.082 48.082 0 0 1 44.23 29.31 47.786 47.786 0 0 1 3.77 18.69v49.75a15.991 15.991 0 0 0 8.34 14.05l29.63 16.16a95.952 95.952 0 0 1 50.03 84.28z" fill="#ffcc80"/><g fill="#ffb74d"><path d="m496 376-23.417 19.514a68.322 68.322 0 0 0 -24.583 52.486 8.037 8.037 0 0 1 3.2-6.4l44.8-33.6a39.972 39.972 0 0 0 16-32v-32a39.972 39.972 0 0 1 -16 32z"/><path d="m368 479.975h80v32h-80z"/><path d="m64 448a68.322 68.322 0 0 0 -24.583-52.486l-23.417-19.514a39.972 39.972 0 0 1 -16-32v32a39.972 39.972 0 0 0 16 32l44.8 33.6a8.037 8.037 0 0 1 3.2 6.4z"/><path d="m64 479.975h80v32h-80z"/></g><path d="m284.28 299.72a40 40 0 0 0 -68.28 28.28v40a40 40 0 0 1 80 0v-40a39.694 39.694 0 0 0 -11.72-28.28z" fill="#ff8f8f"/><path d="m80 264c0-27.362 8.058-53.175 22.688-72.683 15.147-20.195 35.5-31.317 57.312-31.317s42.165 11.122 57.312 31.317a102.091 102.091 0 0 1 5.724 8.537c-2.526-21.258-10.012-40.92-21.724-56.537-15.147-20.195-35.5-31.317-57.312-31.317s-42.165 11.122-57.312 31.317c-14.63 19.508-22.688 45.321-22.688 72.683 0 23.543 5.979 45.927 16.964 64.146a136.916 136.916 0 0 1 -.964-16.146z" fill="#f5f5f5"/><path d="m304 264c0-27.362 8.058-53.175 22.688-72.683 15.147-20.195 35.5-31.317 57.312-31.317s42.165 11.122 57.312 31.317a102.091 102.091 0 0 1 5.724 8.537c-2.526-21.258-10.012-40.92-21.724-56.537-15.147-20.195-35.5-31.317-57.312-31.317s-42.165 11.122-57.312 31.317c-14.63 19.508-22.688 45.321-22.688 72.683 0 23.543 5.979 45.927 16.964 64.146a136.916 136.916 0 0 1 -.964-16.146z" fill="#f5f5f5"/><circle cx="228" cy="60" fill="#b2dfdb" r="28"/><circle cx="268" cy="108" fill="#b2dfdb" r="20"/></g></g></svg>