<svg height="512pt" viewBox="0 0 512 512" width="512pt" xmlns="http://www.w3.org/2000/svg"><path d="m489.359375 344.023438c7.890625-2.632813 12.640625-10.75 12.640625-19.070313v-42.972656c0-11.046875-8.949219-20-20-20h-50.269531l-246.152344-246.136719c-7.808594-7.808594-20.46875-7.808594-28.277344 0l-31.722656 31.710938c-5.789063 5.796874-6.308594 14.4375-2.777344 21.839843 7.519531 15.730469 3.269531 34.25-7.929687 45.4375-12.492188 12.5-31.199219 15-46.179688 7.5-7.441406-3.71875-16.542968-1.339843-22.429687 4.542969l-30.382813 30.386719c-7.808594 7.8125-7.808594 20.472656 0 28.28125l76.429688 76.441406h-62.308594c-11.050781 0-20 8.949219-20 20v44.847656c0 8.203125 5.738281 14.679688 13.46875 17.410157 16.453125 5.8125 26.53125 21.910156 26.53125 37.742187 0 17.667969-11.460938 32.667969-27.359375 37.960937-7.890625 2.628907-12.640625 10.75-12.640625 19.066407v42.972656c0 11.050781 8.949219 20 20 20h452c11.050781 0 20-8.949219 20-20v-42.972656c0-8.316407-4.75-16.4375-12.640625-19.066407-15.898437-5.292968-27.359375-20.292968-27.359375-37.960937 0-17.671875 11.460938-32.671875 27.359375-37.960937zm0 0" fill="#ff5f82"/><path d="m90 461.984375v-160h332v160c-14.632812 0-318.074219 0-332 0zm0 0" fill="#ffdf57"/><path d="m375.160156 261.984375h-226.28125l-62.289062-62.289063 113.140625-113.140624zm0 0" fill="#ffdf57"/><path d="m256 381.984375-80 40v-80zm0 0" fill="#ff5f82"/><path d="m30 511.984375h452c16.542969 0 30-13.460937 30-30v-42.972656c0-13.195313-7.828125-24.671875-19.480469-28.558594-12.273437-4.082031-20.519531-15.523437-20.519531-28.46875s8.246094-24.390625 20.523438-28.472656c11.648437-3.882813 19.476562-15.359375 19.476562-28.558594v-42.96875c0-16.542969-13.457031-30-30-30h-46.128906l-243.21875-243.214844c-11.699219-11.691406-30.730469-11.691406-42.421875 0l-31.726563 31.71875c-8.457031 8.46875-10.3125 21.507813-4.726562 33.21875 5.351562 11.1875 2.890625 25.191407-5.980469 34.058594-9.148437 9.152344-23.0625 11.414063-34.636719 5.621094-10.976562-5.488281-24.628906-2.914063-33.972656 6.417969l-30.378906 30.386718c-11.695313 11.695313-11.695313 30.726563 0 42.421875l59.363281 59.371094h-38.171875c-16.542969 0-30 13.457031-30 30v44.847656c0 11.984375 7.90625 22.519531 20.140625 26.839844 11.691406 4.128906 19.859375 15.773437 19.859375 28.3125 0 12.945313-8.246094 24.386719-20.523438 28.472656-11.648437 3.882813-19.476562 15.359375-19.476562 28.554688v42.96875c0 16.542969 13.457031 30.003906 30 30.003906zm-7.050781-333.511719c-3.894531-3.898437-3.894531-10.242187.003906-14.140625l30.371094-30.382812c3.140625-3.132813 7.722656-4.257813 10.890625-2.675781 19.277344 9.65625 42.480468 5.890624 57.722656-9.367188 14.765625-14.75 18.828125-38.117188 9.886719-56.820312-1.503907-3.152344-2.070313-7.554688.828125-10.460938l31.71875-31.710938c3.898437-3.898437 10.242187-3.898437 14.140625 0l229.078125 229.070313h-28.285156l-172.5-172.503906c-3.90625-3.902344-10.238282-3.902344-14.144532 0l-113.140625 113.140625c-1.875 1.875-2.929687 4.417968-2.929687 7.070312s1.054687 5.195313 2.929687 7.070313l45.21875 45.21875h-28.285156zm130.074219 73.511719-52.292969-52.289063 99-99 151.289062 151.289063zm-133.023438 187.027344c0-4.429688 2.441406-8.460938 5.796875-9.582031 20.457031-6.804688 34.203125-25.871094 34.203125-47.445313 0-20.871094-13.652344-40.265625-33.199219-47.171875-3.289062-1.160156-6.800781-3.863281-6.800781-7.976562v-44.851563c0-5.515625 4.484375-10 10-10h452c5.515625 0 10 4.484375 10 10v42.96875c0 4.433594-2.441406 8.464844-5.796875 9.582031-20.457031 6.804688-34.203125 25.875-34.203125 47.449219s13.746094 40.640625 34.199219 47.445313c3.359375 1.121093 5.800781 5.152343 5.800781 9.582031v42.972656c0 5.511719-4.484375 10-10 10h-452c-5.515625 0-10-4.488281-10-10zm0 0"/><path d="m90 471.984375h332c5.523438 0 10-4.476563 10-10v-160c0-5.523437-4.476562-10-10-10h-332c-5.523438 0-10 4.476563-10 10v160c0 5.519531 4.476562 10 10 10zm10-160h186v20c0 5.523437 4.476562 10 10 10s10-4.476563 10-10v-20h106v140h-106v-20c0-5.523437-4.476562-10-10-10s-10 4.476563-10 10v20h-186zm0 0"/><path d="m260.472656 373.039062-80-40c-3.101562-1.550781-6.78125-1.386718-9.730468.4375-2.945313 1.820313-4.742188 5.039063-4.742188 8.503907v80c0 3.46875 1.796875 6.6875 4.742188 8.507812 2.949218 1.824219 6.628906 1.988281 9.730468.4375l80-40c3.386719-1.695312 5.527344-5.15625 5.527344-8.945312 0-3.785157-2.140625-7.25-5.527344-8.941407zm-74.472656 32.761719v-47.636719l47.640625 23.816407zm0 0"/><path d="m133 331.984375c-5.523438 0-10 4.476563-10 10v80c0 5.523437 4.476562 10 10 10s10-4.476563 10-10v-80c0-5.523437-4.476562-10-10-10zm0 0"/><path d="m296 401.984375c5.523438 0 10-4.476563 10-10v-20c0-5.523437-4.476562-10-10-10s-10 4.476563-10 10v20c0 5.519531 4.476562 10 10 10zm0 0"/><path d="m336 351.984375h46c5.523438 0 10-4.476563 10-10s-4.476562-10-10-10h-46c-5.523438 0-10 4.476563-10 10s4.476562 10 10 10zm0 0"/><path d="m336 391.984375h46c5.523438 0 10-4.476563 10-10s-4.476562-10-10-10h-46c-5.523438 0-10 4.476563-10 10s4.476562 10 10 10zm0 0"/><path d="m336 431.984375h46c5.523438 0 10-4.476563 10-10s-4.476562-10-10-10h-46c-5.523438 0-10 4.476563-10 10s4.476562 10 10 10zm0 0"/></svg>